<svg width="180" height="34" viewBox="0 0 180 34" fill="none" xmlns="http://www.w3.org/2000/svg">
<path fill-rule="evenodd" clip-rule="evenodd" d="M11.5375 5.15435C7.4172 6.66377 2.8031 10.2811 1.2117 17.8205C1.10032 18.3482 1.43024 18.8679 1.94862 18.9813C2.46699 19.0947 2.97751 18.7588 3.0889 18.2311C4.47094 11.6835 8.36293 8.48863 11.8843 7.10253C12.6278 9.04674 14.4845 10.4246 16.6573 10.4246C19.4851 10.4246 21.7774 8.09094 21.7774 5.21228C21.7774 2.33362 19.4851 0 16.6573 0C13.8485 0 11.568 2.30237 11.5375 5.15435Z" fill="#FFAE00"/>
<path fill-rule="evenodd" clip-rule="evenodd" d="M32.3798 21.5278C32.933 17.1057 31.8667 11.2774 25.9945 6.40583C25.5835 6.06486 24.9788 6.12764 24.6438 6.54605C24.3089 6.96446 24.3706 7.58006 24.7816 7.92103C29.8813 12.1517 30.9064 17.1333 30.5177 20.9562C28.4786 20.7461 26.4289 21.8029 25.4407 23.7729C24.1547 26.3366 25.1538 29.4762 27.6723 30.7854C30.1907 32.0945 33.2748 31.0774 34.5608 28.5136C35.8381 25.9671 34.861 22.8524 32.3798 21.5278Z" fill="#FFAE00"/>
<path fill-rule="evenodd" clip-rule="evenodd" d="M7.93959 30.8509C11.4748 33.4816 17.0022 35.3487 24.0299 32.4705C24.5218 32.269 24.7601 31.6998 24.5622 31.1991C24.3644 30.6983 23.8052 30.4557 23.3133 30.6571C17.2101 33.1567 12.4307 31.6622 9.33122 29.4678C10.4975 27.7522 10.5796 25.4147 9.36327 23.5819C7.78026 21.1965 4.59749 20.5692 2.25434 22.1807C-0.0888062 23.7922 -0.705022 27.0323 0.877985 29.4176C2.45036 31.7869 5.60109 32.4218 7.93959 30.8509Z" fill="#FFAE00"/>
<path fill-rule="evenodd" clip-rule="evenodd" d="M16.9233 17.1571L24.8486 6.99365L26.3524 8.2089L18.5179 18.2561L24.8605 31.2738L23.1404 32.1423L16.7915 19.1117H2.1333V17.1571H16.9233Z" fill="#FFAE00"/>
<path d="M46.1548 24.056H40.9756L48.8672 1.30003H55.0957L62.9762 24.056H57.7969L52.0707 6.50013H51.8922L46.1548 24.056ZM45.8311 15.1114H58.0648V18.867H45.8311V15.1114Z" fill="white"/>
<path d="M65.6383 24.056V6.98903H70.2483V9.96687H70.4269C70.7394 8.90759 71.264 8.10757 72.0007 7.56682C72.7374 7.01866 73.5858 6.74458 74.5457 6.74458C74.7838 6.74458 75.0406 6.75939 75.3159 6.78902C75.5912 6.81866 75.8331 6.8594 76.0414 6.91125V11.1113C75.8182 11.0447 75.5094 10.9854 75.115 10.9336C74.7206 10.8817 74.3597 10.8558 74.0322 10.8558C73.3328 10.8558 72.7077 11.0076 72.157 11.3113C71.6138 11.6076 71.1822 12.0225 70.8622 12.5558C70.5497 13.0892 70.3934 13.704 70.3934 14.4003V24.056H65.6383Z" fill="white"/>
<path d="M78.5892 24.056V1.30003H83.3443V9.85575H83.4894C83.6977 9.39648 83.9991 8.92981 84.3935 8.45573C84.7953 7.97423 85.3162 7.57423 85.9562 7.2557C86.6036 6.92977 87.4073 6.7668 88.3672 6.7668C89.6174 6.7668 90.7708 7.09274 91.8275 7.7446C92.8842 8.38906 93.7288 9.36315 94.3613 10.6669C94.9938 11.9632 95.3101 13.5892 95.3101 15.5448C95.3101 17.4485 95.0013 19.0559 94.3836 20.3671C93.7734 21.6708 92.94 22.6597 91.8833 23.3338C90.8341 24.0005 89.6583 24.3338 88.3561 24.3338C87.4333 24.3338 86.6483 24.182 86.0008 23.8783C85.3609 23.5745 84.8363 23.1931 84.427 22.7338C84.0177 22.2671 83.7052 21.7967 83.4894 21.3227H83.2773V24.056H78.5892ZM83.2438 15.5225C83.2438 16.5374 83.3852 17.4226 83.668 18.1781C83.9507 18.9337 84.36 19.5226 84.8958 19.9448C85.4316 20.3597 86.0827 20.5671 86.8492 20.5671C87.6231 20.5671 88.2779 20.356 88.8137 19.9337C89.3495 19.5041 89.755 18.9115 90.0304 18.1559C90.3132 17.3929 90.4545 16.5151 90.4545 15.5225C90.4545 14.5373 90.3169 13.6706 90.0415 12.9225C89.7662 12.1743 89.3607 11.5891 88.8249 11.1669C88.2891 10.7447 87.6305 10.5335 86.8492 10.5335C86.0753 10.5335 85.4204 10.7373 84.8846 11.1447C84.3563 11.5521 83.9507 12.1299 83.668 12.878C83.3852 13.6262 83.2438 14.5077 83.2438 15.5225Z" fill="white"/>
<path d="M98.4829 24.056V6.98903H103.238V24.056H98.4829ZM100.872 4.78899C100.165 4.78899 99.5582 4.55565 99.0522 4.08897C98.5536 3.61489 98.3043 3.04821 98.3043 2.38894C98.3043 1.73707 98.5536 1.1778 99.0522 0.711127C99.5582 0.237042 100.165 0 100.872 0C101.579 0 102.181 0.237042 102.68 0.711127C103.186 1.1778 103.439 1.73707 103.439 2.38894C103.439 3.04821 103.186 3.61489 102.68 4.08897C102.181 4.55565 101.579 4.78899 100.872 4.78899Z" fill="white"/>
<path d="M107.136 1.30003H113.097L119.392 16.5892H119.66L125.956 1.30003H131.916V24.056H127.228V9.24463H127.038L121.123 23.9449H117.93L112.014 9.18907H111.824V24.056H107.136V1.30003Z" fill="white"/>
<path d="M135.809 24.056V6.98903H140.564V24.056H135.809ZM138.198 4.78899C137.491 4.78899 136.884 4.55565 136.378 4.08897C135.88 3.61489 135.63 3.04821 135.63 2.38894C135.63 1.73707 135.88 1.1778 136.378 0.711127C136.884 0.237042 137.491 0 138.198 0C138.905 0 139.507 0.237042 140.006 0.711127C140.512 1.1778 140.765 1.73707 140.765 2.38894C140.765 3.04821 140.512 3.61489 140.006 4.08897C139.507 4.55565 138.905 4.78899 138.198 4.78899Z" fill="white"/>
<path d="M149.128 14.1892V24.056H144.373V6.98903H148.905V10.0002H149.106C149.485 9.00759 150.122 8.22239 151.015 7.6446C151.908 7.0594 152.99 6.7668 154.263 6.7668C155.454 6.7668 156.492 7.02607 157.377 7.5446C158.263 8.06312 158.951 8.80388 159.442 9.76686C159.933 10.7224 160.179 11.8632 160.179 13.1892V24.056H155.424V14.0336C155.431 12.9891 155.163 12.1743 154.62 11.5891C154.077 10.9965 153.329 10.7002 152.376 10.7002C151.737 10.7002 151.171 10.8373 150.68 11.1113C150.196 11.3854 149.817 11.7854 149.541 12.3114C149.273 12.8299 149.136 13.4558 149.128 14.1892Z" fill="white"/>
<path d="M170.244 24.3338C168.942 24.3338 167.763 24.0005 166.706 23.3338C165.657 22.6597 164.823 21.6708 164.206 20.3671C163.595 19.0559 163.29 17.4485 163.29 15.5448C163.29 13.5892 163.607 11.9632 164.239 10.6669C164.872 9.36315 165.712 8.38906 166.762 7.7446C167.818 7.09274 168.976 6.7668 170.233 6.7668C171.193 6.7668 171.993 6.92977 172.633 7.2557C173.28 7.57423 173.801 7.97423 174.196 8.45573C174.598 8.92981 174.903 9.39648 175.111 9.85575H175.256V1.30003H180V24.056H175.312V21.3227H175.111C174.888 21.7967 174.571 22.2671 174.162 22.7338C173.76 23.1931 173.236 23.5745 172.588 23.8783C171.948 24.182 171.167 24.3338 170.244 24.3338ZM171.751 20.5671C172.518 20.5671 173.165 20.3597 173.693 19.9448C174.229 19.5226 174.638 18.9337 174.921 18.1781C175.211 17.4226 175.357 16.5374 175.357 15.5225C175.357 14.5077 175.215 13.6262 174.932 12.878C174.65 12.1299 174.24 11.5521 173.705 11.1447C173.169 10.7373 172.518 10.5335 171.751 10.5335C170.97 10.5335 170.311 10.7447 169.775 11.1669C169.24 11.5891 168.834 12.1743 168.559 12.9225C168.283 13.6706 168.146 14.5373 168.146 15.5225C168.146 16.5151 168.283 17.3929 168.559 18.1559C168.842 18.9115 169.247 19.5041 169.775 19.9337C170.311 20.356 170.97 20.5671 171.751 20.5671Z" fill="white"/>
<path d="M41.9064 33.9199H41.1394L42.8629 29.0933H43.6978L45.4213 33.9199H44.6543L43.3002 29.97H43.2628L41.9064 33.9199ZM42.0351 32.0298H44.5233V32.6425H42.0351V32.0298Z" fill="white"/>
<path d="M52.4151 29.0933V33.9199H51.751L49.3166 30.3801H49.2721V33.9199H48.5495V29.0933H49.2183L51.6551 32.6378H51.6995V29.0933H52.4151Z" fill="white"/>
<path d="M56.3104 33.9199H55.5434L57.2669 29.0933H58.1017L59.8252 33.9199H59.0582L57.7042 29.97H57.6668L56.3104 33.9199ZM56.439 32.0298H58.9272V32.6425H56.439V32.0298Z" fill="white"/>
<path d="M62.9535 33.9199V29.0933H63.6761V33.293H65.8462V33.9199H62.9535Z" fill="white"/>
<path d="M68.384 29.0933H69.2048L70.4559 31.2874H70.5074L71.7585 29.0933H72.5793L70.8418 32.0251V33.9199H70.1215V32.0251L68.384 29.0933Z" fill="white"/>
<path d="M78.3104 30.3612C78.2854 30.1381 78.1825 29.9653 78.0017 29.8428C77.8208 29.7186 77.5932 29.6566 77.3188 29.6566C77.1224 29.6566 76.9524 29.688 76.809 29.7509C76.6656 29.8121 76.5541 29.897 76.4746 30.0054C76.3966 30.1122 76.3577 30.234 76.3577 30.3707C76.3577 30.4854 76.3842 30.5843 76.4372 30.6676C76.4917 30.7509 76.5627 30.8208 76.65 30.8774C76.7389 30.9324 76.834 30.9787 76.9353 31.0164C77.0366 31.0525 77.1341 31.0824 77.2276 31.106L77.6953 31.2285C77.8481 31.2662 78.0048 31.3173 78.1654 31.3817C78.326 31.4461 78.4748 31.531 78.612 31.6362C78.7492 31.7415 78.8599 31.8719 78.9441 32.0274C79.0299 32.183 79.0727 32.3692 79.0727 32.586C79.0727 32.8594 79.0026 33.1021 78.8623 33.3142C78.7235 33.5263 78.5216 33.6936 78.2566 33.8162C77.9931 33.9387 77.6743 34 77.3001 34C76.9415 34 76.6313 33.9427 76.3694 33.828C76.1074 33.7133 75.9024 33.5507 75.7543 33.3401C75.6062 33.128 75.5244 32.8766 75.5088 32.586H76.2337C76.2478 32.7604 76.3039 32.9057 76.4021 33.022C76.5019 33.1367 76.6289 33.2223 76.7833 33.2788C76.9392 33.3338 77.1099 33.3613 77.2954 33.3613C77.4997 33.3613 77.6813 33.3291 77.8403 33.2647C78.0009 33.1987 78.1272 33.1076 78.2192 32.9913C78.3111 32.8735 78.3571 32.736 78.3571 32.5789C78.3571 32.4359 78.3166 32.3189 78.2355 32.2278C78.156 32.1366 78.0477 32.0612 77.9105 32.0015C77.7748 31.9418 77.6213 31.8892 77.4498 31.8436L76.8838 31.6881C76.5003 31.5828 76.1963 31.428 75.9718 31.2238C75.7489 31.0195 75.6374 30.7493 75.6374 30.4131C75.6374 30.135 75.7122 29.8923 75.8619 29.6849C76.0116 29.4775 76.2142 29.3164 76.4699 29.2017C76.7256 29.0855 77.014 29.0273 77.3352 29.0273C77.6595 29.0273 77.9455 29.0847 78.1934 29.1994C78.4429 29.3141 78.6393 29.472 78.7827 29.6731C78.9262 29.8726 79.001 30.102 79.0073 30.3612H78.3104Z" fill="white"/>
<path d="M83.0954 29.0933V33.9199H82.3728V29.0933H83.0954Z" fill="white"/>
<path d="M89.1965 30.3612C89.1716 30.1381 89.0687 29.9653 88.8878 29.8428C88.707 29.7186 88.4794 29.6566 88.205 29.6566C88.0086 29.6566 87.8386 29.688 87.6952 29.7509C87.5518 29.8121 87.4403 29.897 87.3608 30.0054C87.2828 30.1122 87.2438 30.234 87.2438 30.3707C87.2438 30.4854 87.2703 30.5843 87.3234 30.6676C87.3779 30.7509 87.4489 30.8208 87.5362 30.8774C87.625 30.9324 87.7201 30.9787 87.8215 31.0164C87.9228 31.0525 88.0202 31.0824 88.1138 31.106L88.5815 31.2285C88.7343 31.2662 88.891 31.3173 89.0515 31.3817C89.2121 31.4461 89.361 31.531 89.4982 31.6362C89.6354 31.7415 89.7461 31.8719 89.8303 32.0274C89.916 32.183 89.9589 32.3692 89.9589 32.586C89.9589 32.8594 89.8887 33.1021 89.7484 33.3142C89.6097 33.5263 89.4078 33.6936 89.1427 33.8162C88.8793 33.9387 88.5605 34 88.1863 34C87.8277 34 87.5175 33.9427 87.2555 33.828C86.9936 33.7133 86.7886 33.5507 86.6405 33.3401C86.4924 33.128 86.4105 32.8766 86.395 32.586H87.1199C87.1339 32.7604 87.1901 32.9057 87.2883 33.022C87.3881 33.1367 87.5151 33.2223 87.6695 33.2788C87.8254 33.3338 87.9961 33.3613 88.1816 33.3613C88.3858 33.3613 88.5675 33.3291 88.7265 33.2647C88.8871 33.1987 89.0133 33.1076 89.1053 32.9913C89.1973 32.8735 89.2433 32.736 89.2433 32.5789C89.2433 32.4359 89.2028 32.3189 89.1217 32.2278C89.0422 32.1366 88.9338 32.0612 88.7966 32.0015C88.661 31.9418 88.5074 31.8892 88.3359 31.8436L87.77 31.6881C87.3865 31.5828 87.0825 31.428 86.858 31.2238C86.635 31.0195 86.5236 30.7493 86.5236 30.4131C86.5236 30.135 86.5984 29.8923 86.7481 29.6849C86.8977 29.4775 87.1004 29.3164 87.3561 29.2017C87.6118 29.0855 87.9002 29.0273 88.2214 29.0273C88.5456 29.0273 88.8317 29.0847 89.0796 29.1994C89.3291 29.3141 89.5255 29.472 89.6689 29.6731C89.8124 29.8726 89.8872 30.102 89.8934 30.3612H89.1965Z" fill="white"/>
<path d="M101.416 30.6629H100.687C100.659 30.5058 100.606 30.3675 100.53 30.2481C100.454 30.1287 100.36 30.0274 100.249 29.9441C100.139 29.8608 100.015 29.798 99.8775 29.7556C99.7419 29.7131 99.5977 29.6919 99.4449 29.6919C99.1689 29.6919 98.9218 29.7619 98.7036 29.9017C98.4868 30.0415 98.3154 30.2465 98.1891 30.5168C98.0644 30.787 98.002 31.117 98.002 31.5066C98.002 31.8994 98.0644 32.2309 98.1891 32.5011C98.3154 32.7714 98.4876 32.9756 98.7059 33.1139C98.9242 33.2521 99.1697 33.3213 99.4425 33.3213C99.5938 33.3213 99.7372 33.3008 99.8728 33.26C100.01 33.2176 100.134 33.1555 100.245 33.0738C100.355 32.9921 100.449 32.8923 100.525 32.7745C100.603 32.6551 100.657 32.5184 100.687 32.3644L101.416 32.3668C101.377 32.604 101.302 32.8224 101.189 33.022C101.079 33.2199 100.936 33.3912 100.761 33.5357C100.588 33.6787 100.39 33.7895 100.167 33.868C99.9445 33.9466 99.7013 33.9859 99.4379 33.9859C99.0232 33.9859 98.6537 33.8869 98.3294 33.6889C98.0051 33.4894 97.7494 33.2042 97.5623 32.8334C97.3768 32.4626 97.2841 32.0204 97.2841 31.5066C97.2841 30.9913 97.3776 30.549 97.5647 30.1798C97.7518 29.809 98.0074 29.5246 98.3317 29.3266C98.656 29.1271 99.0247 29.0273 99.4379 29.0273C99.692 29.0273 99.929 29.0643 100.149 29.1381C100.37 29.2104 100.569 29.3172 100.745 29.4586C100.921 29.5985 101.067 29.7697 101.182 29.9724C101.298 30.1735 101.376 30.4037 101.416 30.6629Z" fill="white"/>
<path d="M104.718 33.9199V29.0933H106.425C106.796 29.0933 107.104 29.1577 107.348 29.2866C107.595 29.4154 107.779 29.5937 107.9 29.8216C108.022 30.0478 108.083 30.3094 108.083 30.6063C108.083 30.9017 108.021 31.1617 107.898 31.3864C107.776 31.6095 107.592 31.7831 107.346 31.9072C107.101 32.0314 106.793 32.0934 106.422 32.0934H105.129V31.4665H106.357C106.591 31.4665 106.781 31.4328 106.927 31.3652C107.076 31.2976 107.184 31.1994 107.253 31.0706C107.321 30.9418 107.355 30.787 107.355 30.6063C107.355 30.4241 107.32 30.2662 107.25 30.1326C107.182 29.9991 107.073 29.897 106.925 29.8263C106.779 29.754 106.586 29.7179 106.348 29.7179H105.44V33.9199H104.718ZM107.082 31.7423L108.265 33.9199H107.442L106.282 31.7423H107.082Z" fill="white"/>
<path d="M110.855 29.0933H111.676L112.927 31.2874H112.979L114.23 29.0933H115.051L113.313 32.0251V33.9199H112.593V32.0251L110.855 29.0933Z" fill="white"/>
<path d="M118.17 33.9199V29.0933H119.877C120.249 29.0933 120.558 29.1617 120.803 29.2984C121.048 29.4351 121.231 29.622 121.352 29.8593C121.474 30.0949 121.535 30.3605 121.535 30.6558C121.535 30.9528 121.473 31.2199 121.35 31.4571C121.229 31.6928 121.045 31.8797 120.798 32.018C120.553 32.1547 120.246 32.223 119.875 32.223H118.701V31.6056H119.809C120.044 31.6056 120.235 31.5647 120.382 31.483C120.529 31.3998 120.636 31.2866 120.705 31.1437C120.773 31.0007 120.808 30.8381 120.808 30.6558C120.808 30.4736 120.773 30.3118 120.705 30.1703C120.636 30.0289 120.528 29.9182 120.38 29.8381C120.233 29.7579 120.04 29.7179 119.8 29.7179H118.892V33.9199H118.17Z" fill="white"/>
<path d="M124.582 29.7202V29.0933H128.289V29.7202H126.795V33.9199H126.074V29.7202H124.582Z" fill="white"/>
<path d="M135.499 31.5066C135.499 32.0219 135.406 32.465 135.219 32.8358C135.031 33.205 134.775 33.4894 134.449 33.6889C134.125 33.8869 133.756 33.9859 133.343 33.9859C132.928 33.9859 132.558 33.8869 132.232 33.6889C131.908 33.4894 131.652 33.2042 131.465 32.8334C131.278 32.4626 131.185 32.0204 131.185 31.5066C131.185 30.9913 131.278 30.549 131.465 30.1798C131.652 29.809 131.908 29.5246 132.232 29.3266C132.558 29.1271 132.928 29.0273 133.343 29.0273C133.756 29.0273 134.125 29.1271 134.449 29.3266C134.775 29.5246 135.031 29.809 135.219 30.1798C135.406 30.549 135.499 30.9913 135.499 31.5066ZM134.784 31.5066C134.784 31.1138 134.72 30.7831 134.594 30.5144C134.469 30.2442 134.298 30.0399 134.08 29.9017C133.863 29.7619 133.617 29.6919 133.343 29.6919C133.067 29.6919 132.821 29.7619 132.604 29.9017C132.387 30.0399 132.216 30.2442 132.09 30.5144C131.965 30.7831 131.902 31.1138 131.902 31.5066C131.902 31.8994 131.965 32.2309 132.09 32.5011C132.216 32.7698 132.387 32.974 132.604 33.1139C132.821 33.2521 133.067 33.3213 133.343 33.3213C133.617 33.3213 133.863 33.2521 134.08 33.1139C134.298 32.974 134.469 32.7698 134.594 32.5011C134.72 32.2309 134.784 31.8994 134.784 31.5066Z" fill="white"/>
<path d="M143.421 33.9199H142.654L144.377 29.0933H145.212L146.935 33.9199H146.168L144.814 29.97H144.777L143.421 33.9199ZM143.549 32.0298H146.037V32.6425H143.549V32.0298Z" fill="white"/>
<path d="M150.786 29.0933V33.9199H150.064V29.0933H150.786Z" fill="white"/>
</svg>
